HIERARCHY
ROOT Hips
{
	OFFSET 0.000000 0.000000 0.000000
	CHANNELS 6 Xposition Yposition Zposition Xrotation Yrotation Zrotation
	JOINT LeftUpLeg_virtual
	{
		OFFSET 0.000000 0.000000 0.000000
		CHANNELS 3 Xrotation Yrotation Zrotation
		JOINT LeftUpLeg
		{
			OFFSET 13.026900 -6.336304 -1.092800
			CHANNELS 3 Xrotation Yrotation Zrotation
			JOINT LeftLeg
			{
				OFFSET 0.524474 -46.096886 9.782700
				CHANNELS 3 Xrotation Yrotation Zrotation
				JOINT LeftFoot
				{
					OFFSET -0.524474 -53.427422 -12.948200
					CHANNELS 3 Xrotation Yrotation Zrotation
					JOINT LeftToeBase
					{
						OFFSET 0.192200 -14.009700 16.364100
						CHANNELS 3 Xrotation Yrotation Zrotation
						JOINT LeftToe_End
						{
							OFFSET -1.784700 -0.561700 9.474800
							CHANNELS 3 Xrotation Yrotation Zrotation
							End Site
							{
								OFFSET 0 0 0
							}
						}
					}
				}
			}
		}
	}
	JOINT RightUpLeg_virtual
	{
		OFFSET 0.000000 0.000000 0.000000
		CHANNELS 3 Xrotation Yrotation Zrotation
		JOINT RightUpLeg
		{
			OFFSET -12.883000 -6.336304 -1.092800
			CHANNELS 3 Xrotation Yrotation Zrotation
			JOINT RightLeg
			{
				OFFSET -0.524587 -46.096825 9.782800
				CHANNELS 3 Xrotation Yrotation Zrotation
				JOINT RightFoot
				{
					OFFSET 0.524587 -53.427383 -12.948300
					CHANNELS 3 Xrotation Yrotation Zrotation
					JOINT RightToeBase
					{
						OFFSET -0.192200 -14.009700 16.364100
						CHANNELS 3 Xrotation Yrotation Zrotation
						JOINT RightToe_End
						{
							OFFSET 1.784700 -0.561700 9.474800
							CHANNELS 3 Xrotation Yrotation Zrotation
							End Site
							{
								OFFSET 0 0 0
							}
						}
					}
				}
			}
		}
	}
	JOINT Spine_virtual
	{
		OFFSET 0.000000 0.000000 0.000000
		CHANNELS 3 Xrotation Yrotation Zrotation
		JOINT Spine
		{
			OFFSET 0.072000 7.257294 -0.789700
			CHANNELS 3 Xrotation Yrotation Zrotation
			JOINT Spine1
			{
				OFFSET 0.000000 12.508769 -0.658067
				CHANNELS 3 Xrotation Yrotation Zrotation
				JOINT Spine1_split
				{
					OFFSET 0.000000 12.508769 -0.658067
					CHANNELS 3 Xrotation Yrotation Zrotation
					JOINT Spine2
					{
						OFFSET 0.000000 12.508769 -0.658067
						CHANNELS 3 Xrotation Yrotation Zrotation
						JOINT Neck_virtual
						{
							OFFSET 0.000000 0.000000 0.000000
							CHANNELS 3 Xrotation Yrotation Zrotation
							JOINT Neck
							{
								OFFSET 0.000000 14.033295 7.520400
								CHANNELS 3 Xrotation Yrotation Zrotation
								JOINT Head
								{
									OFFSET 0.000000 8.198502 5.703100
									CHANNELS 3 Xrotation Yrotation Zrotation
									JOINT HeadTop_End
									{
										OFFSET 0.000000 17.760803 13.332701
										CHANNELS 3 Xrotation Yrotation Zrotation
										End Site
										{
											OFFSET 0 0 0
										}
									}
								}
							}
						}
						JOINT LeftShoulder_virtual
						{
							OFFSET 0.000000 0.000000 0.000000
							CHANNELS 3 Xrotation Yrotation Zrotation
							JOINT LeftShoulder
							{
								OFFSET 6.292450 5.785301 -0.669000
								CHANNELS 3 Xrotation Yrotation Zrotation
								JOINT LeftShoulder_split
								{
									OFFSET 6.292450 5.785301 -0.669000
									CHANNELS 3 Xrotation Yrotation Zrotation
									JOINT LeftArm
									{
										OFFSET 13.907140 -6.093903 1.965100
										CHANNELS 3 Xrotation Yrotation Zrotation
										JOINT LeftForeArm
										{
											OFFSET 34.140198 0.000000 0.000000
											CHANNELS 3 Xrotation Yrotation Zrotation
											JOINT LeftHand
											{
												OFFSET 40.960209 0.000000 0.000000
												CHANNELS 3 Xrotation Yrotation Zrotation
												End Site
												{
													OFFSET 0 0 0
												}
											}
										}
									}
								}
							}
						}
						JOINT RightShoulder_virtual
						{
							OFFSET 0.000000 0.000000 0.000000
							CHANNELS 3 Xrotation Yrotation Zrotation
							JOINT RightShoulder
							{
								OFFSET -6.292450 5.785301 -0.669000
								CHANNELS 3 Xrotation Yrotation Zrotation
								JOINT RightShoulder_split
								{
									OFFSET -6.292450 5.785301 -0.669000
									CHANNELS 3 Xrotation Yrotation Zrotation
									JOINT RightArm
									{
										OFFSET -13.907140 -6.093903 1.965100
										CHANNELS 3 Xrotation Yrotation Zrotation
										JOINT RightForeArm
										{
											OFFSET -34.140198 0.000000 0.000000
											CHANNELS 3 Xrotation Yrotation Zrotation
											JOINT RightHand
											{
												OFFSET -40.960209 0.000000 0.000000
												CHANNELS 3 Xrotation Yrotation Zrotation
												End Site
												{
													OFFSET 0 0 0
												}
											}
										}
									}
								}
							}
						}
					}
				}
			}
		}
	}
}
MOTION
Frames: 10
Frame Time: 0.03333333
5.852695 89.856827 -4.203091 0.000000 0.000000 0.000000 10.259347 8.177349 0.418269 -46.432681 8.155516 6.801832 67.057903 3.299589 2.317456 -22.277683 2.497532 -8.152747 -1.899781 -0.688415 -1.442978 0.000000 0.000000 0.000000 10.634622 9.085086 0.295787 -39.763613 -9.838899 -3.473145 70.902356 -2.919859 -1.628358 -33.396736 -16.502376 13.397343 5.260236 3.052240 -9.804650 0.000000 0.000000 0.000000 8.738935 12.215022 -0.188393 6.854961 -0.651549 1.534234 8.056743 -2.044480 0.997091 0.092311 -0.402795 0.047877 0.000000 0.000000 0.000000 8.105257 1.103563 1.630218 -25.396974 9.527287 17.693480 -20.213591 -42.002088 -14.430626 0.000000 0.000000 0.000000 7.337627 -1.417782 0.426590 3.815164 -21.847031 3.333691 3.113337 1.838072 -2.685012 -61.616018 -31.397007 -63.008113 -177.987394 -69.766435 -173.571622 0.000000 0.000000 0.000000 9.031479 -0.492468 1.820187 -4.581402 10.590521 9.610395 -3.100365 0.301379 6.931649 -48.006292 35.108559 55.996404 -142.425741 61.163825 133.627856 0.000000 0.000000 0.000000 
5.861339 89.856461 -4.179100 0.000000 0.000000 0.000000 10.268043 8.174420 0.406872 -46.437930 8.165697 6.819678 67.068346 3.298153 2.312410 -22.284629 2.497225 -8.156367 -1.897575 -0.689410 -1.439238 0.000000 0.000000 0.000000 10.636066 9.085314 0.284232 -39.759142 -9.827639 -3.469077 70.902384 -2.921376 -1.624877 -33.391258 -16.499845 13.392931 5.262775 3.052688 -9.803210 0.000000 0.000000 0.000000 8.735120 12.209829 -0.204292 6.844623 -0.648337 1.532538 8.056165 -2.043869 0.991562 0.091767 -0.402168 0.045644 0.000000 0.000000 0.000000 8.118413 1.106204 1.623558 -25.388464 9.522219 17.714125 -20.220147 -41.958590 -14.441335 0.000000 0.000000 0.000000 7.333051 -1.413176 0.425631 3.817511 -21.844050 3.352166 3.125754 1.814092 -2.685551 -61.720048 -31.442960 -63.067672 -177.966425 -69.653914 -173.555667 0.000000 0.000000 0.000000 9.024073 -0.495369 1.815027 -4.580817 10.556787 9.591962 -3.120261 0.301153 6.912974 -48.123812 35.139646 56.114785 -142.716407 61.028471 133.898031 0.000000 0.000000 0.000000 
5.876669 89.855659 -4.150341 0.000000 0.000000 0.000000 10.277930 8.155197 0.387673 -46.446516 8.179379 6.845730 67.091780 3.300568 2.306816 -22.302413 2.498089 -8.155305 -1.908242 -0.688568 -1.442610 0.000000 0.000000 0.000000 10.641933 9.068214 0.265647 -39.761116 -9.823688 -3.464830 70.893832 -2.922836 -1.620716 -33.370989 -16.491584 13.391861 5.259448 3.053561 -9.801176 0.000000 0.000000 0.000000 8.740789 12.189809 -0.227469 6.834716 -0.631950 1.535709 8.049297 -2.031775 0.978828 0.091579 -0.399684 0.046050 0.000000 0.000000 0.000000 8.130004 1.118258 1.607903 -25.403161 9.507203 17.754313 -20.235277 -41.905506 -14.450899 0.000000 0.000000 0.000000 7.320087 -1.396706 0.417383 3.817670 -21.836649 3.367405 3.127135 1.777553 -2.688487 -61.833791 -31.518806 -63.157414 -177.852553 -69.540710 -173.446698 0.000000 0.000000 0.000000 9.010679 -0.489382 1.801175 -4.577868 10.515796 9.578558 -3.088598 0.284952 6.922489 -48.304997 35.145934 56.287729 -142.994067 60.897482 134.149710 0.000000 0.000000 0.000000 
5.897072 89.854370 -4.122997 0.000000 0.000000 0.000000 10.286039 8.125914 0.367885 -46.453554 8.194712 6.870551 67.119613 3.306181 2.301775 -22.323602 2.498661 -8.151228 -1.934386 -0.686269 -1.449565 0.000000 0.000000 0.000000 10.650912 9.036598 0.246911 -39.767499 -9.825903 -3.462490 70.877249 -2.924061 -1.616865 -33.343334 -16.480208 13.391842 5.253042 3.054742 -9.799338 0.000000 0.000000 0.000000 8.753325 12.161315 -0.249275 6.827364 -0.606347 1.542722 8.039632 -2.011881 0.961943 0.091360 -0.397015 0.048023 0.000000 0.000000 0.000000 8.135598 1.137310 1.587079 -25.440827 9.488106 17.801286 -20.271769 -41.852339 -14.468340 0.000000 0.000000 0.000000 7.304980 -1.373763 0.401848 3.816045 -21.832370 3.372008 3.117864 1.759437 -2.695087 -61.917318 -31.590260 -63.231542 -177.663097 -69.491062 -173.253609 0.000000 0.000000 0.000000 8.994729 -0.474609 1.782833 -4.575996 10.479793 9.577897 -3.025137 0.281269 6.956265 -48.486099 35.121929 56.451370 -143.151531 60.832288 134.281410 0.000000 0.000000 0.000000 
5.918818 89.855354 -4.096992 0.000000 0.000000 0.000000 10.289754 8.094073 0.354054 -46.450829 8.210526 6.884606 67.142119 3.313722 2.298741 -22.339797 2.498969 -8.145862 -1.966175 -0.683511 -1.457208 0.000000 0.000000 0.000000 10.659345 8.999544 0.234644 -39.774633 -9.832488 -3.464204 70.856410 -2.926113 -1.613806 -33.316218 -16.470458 13.389995 5.250989 3.055437 -9.798091 0.000000 0.000000 0.000000 8.772133 12.135566 -0.263387 6.824305 -0.579406 1.550154 8.029921 -1.989525 0.943505 0.090368 -0.395264 0.050402 0.000000 0.000000 0.000000 8.132676 1.158438 1.566402 -25.495609 9.471811 17.840569 -20.333420 -41.800829 -14.501446 0.000000 0.000000 0.000000 7.293101 -1.351294 0.381594 3.814189 -21.835749 3.368209 3.104204 1.769303 -2.708325 -61.951988 -31.642340 -63.258856 -177.437154 -69.532357 -173.010686 0.000000 0.000000 0.000000 8.980031 -0.454245 1.764070 -4.576405 10.458338 9.594171 -2.970488 0.288428 6.987646 -48.624967 35.077413 56.558034 -143.136395 60.862825 134.248324 0.000000 0.000000 0.000000 
5.938692 89.860512 -4.078979 0.000000 0.000000 0.000000 10.292006 8.067418 0.351065 -46.440031 8.226248 6.882812 67.150575 3.323529 2.297088 -22.349933 2.500341 -8.139185 -1.984816 -0.680749 -1.465445 0.000000 0.000000 0.000000 10.665404 8.967168 0.232469 -39.778223 -9.839589 -3.470329 70.836350 -2.928050 -1.612621 -33.293197 -16.466667 13.388625 5.253052 3.055326 -9.798004 0.000000 0.000000 0.000000 8.791926 12.118616 -0.263311 6.825805 -0.559495 1.555746 8.021822 -1.970089 0.926225 0.088656 -0.394006 0.051355 0.000000 0.000000 0.000000 8.122311 1.176046 1.549753 -25.553835 9.464101 17.862171 -20.406635 -41.747783 -14.544671 0.000000 0.000000 0.000000 7.286371 -1.335125 0.359854 3.813206 -21.843177 3.360065 3.080836 1.784950 -2.734778 -61.941462 -31.658764 -63.235455 -177.231675 -69.647398 -172.775318 0.000000 0.000000 0.000000 8.970461 -0.433756 1.748467 -4.578981 10.451192 9.623311 -2.953177 0.289506 7.007361 -48.702189 35.038645 56.592291 -142.996895 60.962478 134.103046 0.000000 0.000000 0.000000 
5.954814 89.869850 -4.067898 0.000000 0.000000 0.000000 10.293294 8.049525 0.358959 -46.421183 8.242216 6.867403 67.137208 3.332658 2.298207 -22.354755 2.501850 -8.134042 -1.988779 -0.678734 -1.470006 0.000000 0.000000 0.000000 10.669714 8.945909 0.240851 -39.776600 -9.841932 -3.480812 70.817245 -2.927370 -1.615259 -33.276118 -16.467596 13.393240 5.254591 3.054610 -9.798788 0.000000 0.000000 0.000000 8.807811 12.112325 -0.251645 6.830660 -0.551068 1.558199 8.014953 -1.957535 0.912877 0.087195 -0.394397 0.049690 0.000000 0.000000 0.000000 8.107646 1.187170 1.538903 -25.598367 9.467600 17.861455 -20.482788 -41.690764 -14.599473 0.000000 0.000000 0.000000 7.284906 -1.326474 0.342946 3.812471 -21.843119 3.351555 3.059890 1.801514 -2.774061 -61.910918 -31.651711 -63.193470 -177.096164 -69.779870 -172.602842 0.000000 0.000000 0.000000 8.964896 -0.419766 1.736419 -4.582712 10.447843 9.653170 -2.961036 0.286605 7.022300 -48.722058 35.029482 56.571568 -142.844117 61.069329 133.958560 0.000000 0.000000 0.000000 
5.966380 89.885239 -4.061489 0.000000 0.000000 0.000000 10.297173 8.041475 0.372575 -46.397677 8.255300 6.842983 67.104218 3.338863 2.302050 -22.353546 2.504260 -8.133621 -1.978387 -0.677796 -1.470789 0.000000 0.000000 0.000000 10.675566 8.940224 0.254236 -39.769750 -9.839087 -3.492482 70.797438 -2.924273 -1.621402 -33.265658 -16.471725 13.404501 5.252701 3.053227 -9.800016 0.000000 0.000000 0.000000 8.820301 12.119590 -0.235981 6.836941 -0.555521 1.557355 8.007203 -1.953373 0.905657 0.086625 -0.395638 0.047968 0.000000 0.000000 0.000000 8.092993 1.189962 1.535186 -25.613973 9.480288 17.843347 -20.539451 -41.636123 -14.657017 0.000000 0.000000 0.000000 7.284008 -1.324022 0.336070 3.811357 -21.826563 3.350512 3.045925 1.809896 -2.798944 -61.892756 -31.648358 -63.177918 -177.074321 -69.865179 -172.548911 0.000000 0.000000 0.000000 8.963010 -0.415485 1.727779 -4.584811 10.442457 9.673981 -2.993755 0.281401 7.025645 -48.707886 35.064490 56.530959 -142.772961 61.126395 133.911282 0.000000 0.000000 0.000000 
5.972990 89.903778 -4.058868 0.000000 0.000000 0.000000 10.304264 8.045792 0.385548 -46.378934 8.260207 6.816138 67.063244 3.342784 2.307247 -22.346048 2.507668 -8.137277 -1.962115 -0.677287 -1.469367 0.000000 0.000000 0.000000 10.684422 8.950621 0.265382 -39.758111 -9.832140 -3.500586 70.776094 -2.920248 -1.628584 -33.259794 -16.478574 13.417507 5.251178 3.050938 -9.800795 0.000000 0.000000 0.000000 8.827085 12.136476 -0.222911 6.842144 -0.569533 1.556538 7.997097 -1.955815 0.905583 0.088206 -0.396615 0.046210 0.000000 0.000000 0.000000 8.080171 1.186792 1.537155 -25.592437 9.497179 17.819385 -20.565411 -41.592372 -14.710049 0.000000 0.000000 0.000000 7.278628 -1.325337 0.339132 3.808669 -21.795549 3.356906 3.044519 1.802602 -2.797604 -61.907257 -31.654279 -63.209726 -177.164083 -69.881974 -172.619890 0.000000 0.000000 0.000000 8.962767 -0.419809 1.723439 -4.584166 10.431884 9.686024 -3.028082 0.280006 7.016912 -48.691551 35.136057 56.508061 -142.804885 61.115522 133.977439 0.000000 0.000000 0.000000 
5.975977 89.922310 -4.060009 0.000000 0.000000 0.000000 10.311065 8.058390 0.391564 -46.366995 8.257072 6.793834 67.026368 3.347969 2.312155 -22.335243 2.510702 -8.137347 -1.954197 -0.677359 -1.465636 0.000000 0.000000 0.000000 10.693645 8.970108 0.269173 -39.744314 -9.824355 -3.501938 70.752352 -2.916971 -1.633758 -33.256567 -16.488184 13.427284 5.254831 3.047467 -9.800375 0.000000 0.000000 0.000000 8.827979 12.157185 -0.219107 6.844326 -0.586238 1.557734 7.985406 -1.961076 0.910905 0.091750 -0.396130 0.045288 0.000000 0.000000 0.000000 8.067457 1.181193 1.542109 -25.540777 9.508816 17.799905 -20.569075 -41.566134 -14.758919 0.000000 0.000000 0.000000 7.269401 -1.328048 0.349799 3.805889 -21.763773 3.366805 3.047579 1.793123 -2.771803 -61.960006 -31.671580 -63.278964 -177.306766 -69.872391 -172.757832 0.000000 0.000000 0.000000 8.960660 -0.427840 1.723443 -4.581042 10.420768 9.693034 -3.038031 0.285194 7.006186 -48.694556 35.219358 56.512213 -142.857669 61.071959 134.065439 0.000000 0.000000 0.000000 
